{"title":"PassionHD - Simply Delicious (Alison Star)[12-11-2011].mp4","uid":15707371,"size":328312177,"categoryP":"porn","categoryS":"hd___movies","magnet":"?xt=urn:btih:1aaaa43b393a6392d558e76f576c966670720533&amp;dn=PassionHD+-+Simply+Delicious+%28Alison+Star%29%5B12-11-2011%5D.mp4&amp;tr=udp%3A%2F%2Ftracker.leechers-paradise.org%3A6969&amp;tr=udp%3A%2F%2Fzer0day.ch%3A1337&amp;tr=udp%3A%2F%2Fopen.demonii.com%3A1337&amp;tr=udp%3A%2F%2Ftracker.coppersurfer.tk%3A6969&amp;tr=udp%3A%2F%2Fexodus.desync.com%3A6969","seeders":0,"leechers":1,"uploader":"freemetoo","files":1,"time":1472535360,"description":"General\r\nFormat                                   : MPEG-4\r\nFormat profile                           : Base Media\r\nCodec ID                                 : isom (isom/iso2/avc1/mp41)\r\nFile size                                : 313 MiB\r\nDuration                                 : 39mn 33s\r\nOverall bit rate                         : 1 107 Kbps\r\nEncoded date                             : UTC 2012-06-15 16:42:34\r\nTagged date                              : UTC 2012-06-15 16:42:34\r\nWriting application                      : Lavf53.24.0\r\n\r\nVideo\r\nID                                       : 1\r\nFormat                                   : AVC\r\nFormat/Info                              : Advanced Video Codec\r\nFormat profile                           :   \r\nFormat settings, CABAC                   : Yes\r\nFormat settings, ReFrames                : 5 frames\r\nCodec ID                                 : avc1\r\nCodec ID/Info                            : Advanced Video Coding\r\nDuration                                 : 39mn 33s\r\nBit rate                                 : 1 000 Kbps\r\nWidth                                    : 750 pixels\r\nHeight                                   : 420 pixels\r\nDisplay aspect ratio                     : 16:9\r\nFrame rate mode                          : Constant\r\nFrame rate                               : 23.976 (23976/1000) fps\r\nColor space                              : YUV\r\nChroma subsampling                       : 4:2:0\r\nBit depth                                : 8 bits\r\nScan type                                : Progressive\r\nBits/(Pixel*Frame)                       : 0.132\r\nStream size                              : 284 MiB (91%)\r\nWriting library                          : x264 core 119 r2106 07efeb4\r\nEncoding settings                        : cabac=1 / ref=5 / deblock=1:0:0 / analyse=0x3:0x113 / me=umh / subme=8 / psy=0 / mixed_ref=1 / me_range=16 / chroma_me=1 / trellis=1 / 8x8dct=1 / cqm=0 / deadzone=21,11 / fast_pskip=1 / chroma_qp_offset=0 / threads=24 / sliced_threads=0 / nr=0 / decimate=1 / interlaced=0 / bluray_compat=0 / constrained_intra=0 / bframes=3 / b_pyramid=2 / b_adapt=2 / b_bias=0 / direct=3 / weightb=1 / open_gop=0 / weightp=2 / keyint=250 / keyint_min=25 / scenecut=40 / intra_refresh=0 / rc=abr / mbtree=0 / bitrate=1000 / ratetol=1.0 / qcomp=0.60 / qpmin=10 / qpmax=51 / qpstep=4 / ip_ratio=1.40 / pb_ratio=1.30 / aq=1:1.00\r\nLanguage                                 : English\r\nEncoded date                             : UTC 2012-06-15 16:42:34\r\nTagged date                              : UTC 2012-06-15 16:42:34\r\n\r\nAudio\r\nID                                       : 2\r\nFormat                                   : AAC\r\nFormat/Info                              : Advanced Audio Codec\r\nFormat profile                           : LC\r\nCodec ID                                 : 40\r\nDuration                                 : 39mn 33s\r\nBit rate mode                            : Constant\r\nBit rate                                 : 96.0 Kbps\r\nChannel(s)                               : 2 channels\r\nChannel positions                        : Front: L R\r\nSampling rate                            : 48.0 KHz\r\nFrame rate                               : 46.875 fps (1024 spf)\r\nCompression mode                         : Lossy\r\nStream size                              : 27.1 MiB (9%)\r\nLanguage                                 : English\r\nDefault                                  : Yes\r\nAlternate group                          : 1\r\nEncoded date                             : UTC 2012-06-15 16:42:34\r\nTagged date                              : UTC 2012-06-15 16:42:34","torrent":{"xt":"urn:btih:1aaaa43b393a6392d558e76f576c966670720533","amp;dn":"PassionHD+-+Simply+Delicious+%28Alison+Star%29%5B12-11-2011%5D.mp4","amp;tr":["udp%3A%2F%2Ftracker.leechers-paradise.org%3A6969","udp%3A%2F%2Fzer0day.ch%3A1337","udp%3A%2F%2Fopen.demonii.com%3A1337","udp%3A%2F%2Ftracker.coppersurfer.tk%3A6969","udp%3A%2F%2Fexodus.desync.com%3A6969"],"infoHash":"1aaaa43b393a6392d558e76f576c966670720533","infoHashBuffer":{"type":"Buffer","data":[26,170,164,59,57,58,99,146,213,88,231,111,87,108,150,102,112,114,5,51]},"announce":[],"urlList":[]}}